<?xml version="1.0" standalone="no"?>
<!DOCTYPE svg PUBLIC "-//W3C//DTD SVG 20010904//EN"
 "http://www.w3.org/TR/2001/REC-SVG-20010904/DTD/svg10.dtd">
<svg version="1.0" xmlns="http://www.w3.org/2000/svg"
 width="512.000000pt" height="512.000000pt" viewBox="0 0 512.000000 512.000000"
 preserveAspectRatio="xMidYMid meet">
<metadata>
Created by potrace 1.11, written by Peter Selinger 2001-2013
</metadata>
<g transform="translate(0.000000,512.000000) scale(0.100000,-0.100000)"
fill="#000000" stroke="none">
<path d="M806 3368 c5 -8 2 -9 -9 -5 -10 4 -17 1 -17 -6 0 -8 -4 -7 -10 3 -7
12 -12 12 -21 3 -9 -9 -16 -10 -26 -2 -10 9 -13 8 -13 -2 0 -11 -2 -11 -10 1
-8 12 -10 12 -10 1 0 -10 -3 -11 -14 -2 -9 7 -17 8 -20 2 -3 -5 -19 -8 -36 -7
-25 2 -27 0 -17 -13 6 -9 7 -13 3 -9 -5 4 -16 2 -24 -5 -13 -9 -14 -9 -8 1 4
6 2 12 -3 12 -6 0 -11 -5 -11 -11 0 -8 -5 -7 -15 1 -13 11 -14 10 -9 -6 4 -10
4 -16 -1 -12 -4 4 -15 2 -23 -5 -11 -8 -14 -8 -9 0 5 7 1 10 -10 8 -10 -1 -17
-10 -17 -19 2 -14 -1 -15 -14 -4 -12 10 -14 10 -8 1 4 -8 2 -13 -4 -13 -6 0
-8 -5 -4 -11 5 -8 1 -8 -14 0 -18 10 -20 9 -17 -10 4 -18 2 -19 -12 -7 -9 7
-14 8 -11 3 4 -6 -3 -22 -13 -35 -18 -22 -19 -22 -10 -3 8 15 8 24 1 28 -6 4
-10 3 -9 -2 2 -16 -13 -53 -21 -48 -4 3 -10 -5 -14 -18 -3 -14 -14 -23 -28
-24 -18 -2 -20 0 -8 7 13 8 12 10 -2 10 -10 0 -18 -5 -18 -11 0 -5 -5 -7 -11
-3 -7 4 -7 9 -2 13 5 3 10 23 10 45 0 21 6 42 13 46 9 6 9 9 1 11 -7 3 -13 11
-15 19 -9 53 -27 73 -42 48 -4 -6 -3 -8 4 -4 6 3 13 2 16 -3 5 -8 -15 -8 -34
-1 -3 1 -8 2 -12 1 -5 0 -8 4 -8 11 0 6 -3 8 -7 5 -3 -4 -13 -1 -22 5 -9 7
-13 8 -9 4 10 -12 -22 -35 -39 -29 -7 3 -10 10 -6 16 4 6 0 8 -9 4 -9 -3 -20
-1 -26 5 -6 6 -12 6 -17 -3 -5 -7 -4 -10 1 -7 5 3 16 -1 24 -10 13 -14 12 -15
-4 -9 -10 4 -24 7 -32 7 -9 0 -12 5 -8 11 4 8 0 8 -15 0 l-21 -12 0 -787 c0
-547 4 -792 11 -802 9 -12 10 -11 5 4 -7 20 -7 20 15 0 12 -10 19 -13 15 -6
-5 8 1 12 21 12 23 0 25 -2 13 -11 -12 -9 -12 -10 3 -5 10 3 21 6 23 6 3 0 2
6 -2 13 -4 6 3 3 15 -7 22 -20 22 -20 15 0 -7 16 -6 17 8 6 11 -9 18 -10 23
-2 3 5 12 10 18 9 9 0 9 -2 0 -6 -19 -7 -15 -19 6 -19 11 0 17 4 15 8 -3 4 4
8 15 8 12 0 21 5 21 12 0 6 3 8 6 5 4 -4 1 -13 -6 -22 -7 -8 -8 -15 -2 -15 5
0 13 7 16 16 3 8 10 12 16 9 11 -7 3 22 -14 45 -8 12 -8 13 4 3 24 -21 34 -14
14 9 -19 21 -19 21 1 14 16 -6 18 -5 7 5 -14 15 -16 33 -2 24 5 -3 7 0 4 9 -3
8 -13 12 -22 9 -14 -4 -14 -3 -3 5 8 6 11 17 8 25 -4 11 -1 14 7 11 7 -3 13 2
13 11 0 11 -6 14 -21 9 -12 -3 -16 -2 -11 3 6 4 11 17 11 28 1 11 3 27 5 35 3
9 -2 14 -11 12 -11 -2 -10 2 4 12 10 8 20 29 21 46 2 27 0 30 -19 25 -11 -4
-16 -3 -11 2 6 4 11 17 11 28 1 11 3 27 5 35 3 9 -2 14 -11 12 -11 -2 -10 2 3
12 22 17 28 46 15 63 -6 7 -8 20 -4 28 4 11 2 14 -7 9 -6 -4 -3 3 8 16 11 13
14 20 7 16 -7 -4 -12 -1 -12 9 0 9 4 13 10 10 5 -3 7 0 4 9 -3 8 -13 12 -22 9
-14 -4 -14 -3 -3 5 8 6 11 17 8 25 -4 11 -1 14 7 11 8 -3 12 2 11 13 -1 20
-13 29 -23 17 -4 -4 -1 -4 7 1 10 5 12 4 7 -4 -10 -16 -26 -4 -19 14 5 14 17
19 36 16 5 -1 6 3 2 9 -4 6 -14 9 -22 8 -9 -2 -18 4 -20 12 -4 13 -3 13 6 0
12 -17 12 -16 15 22 1 16 -3 24 -9 21 -5 -4 -1 4 10 17 11 13 14 20 7 16 -7
-4 -12 -1 -12 9 0 9 4 13 10 10 5 -3 7 0 4 9 -3 8 -13 12 -22 9 -12 -3 -13 -2
-4 4 13 10 12 39 -1 61 -5 7 -3 12 3 12 6 0 8 5 5 10 -4 6 -2 9 3 8 6 -2 10 2
10 7 0 6 -4 9 -10 7 -5 -1 -7 2 -3 8 3 6 11 8 16 5 5 -4 9 -1 9 4 0 6 -5 11
-10 11 -12 0 -1 53 12 58 4 2 8 8 8 13 0 6 -4 7 -10 4 -7 -4 -7 2 -1 18 6 14
7 29 3 33 -4 5 0 3 10 -4 12 -10 18 -10 24 -1 4 7 3 9 -3 6 -6 -4 -13 0 -17 8
-3 8 1 18 9 22 8 5 16 19 18 33 2 13 10 26 17 28 8 3 10 0 5 -8 -5 -8 -4 -11
3 -6 6 3 9 15 7 26 -2 12 6 27 20 38 14 11 21 22 17 26 -3 4 2 4 12 0 12 -5
17 -4 13 3 -14 22 32 47 96 52 4 1 20 13 34 29 15 15 23 21 19 14 -6 -9 -2
-12 10 -10 11 2 22 7 25 12 9 12 31 -3 23 -16 -4 -7 -2 -8 5 -4 6 4 9 10 7 14
-2 4 3 13 11 21 12 11 14 11 11 0 -1 -8 2 -15 7 -16 6 -2 10 1 10 6 0 19 14
23 34 9 12 -8 19 -18 16 -21 -3 -4 0 -3 7 3 8 6 16 5 26 -3 13 -10 14 -9 2 13
-13 25 -13 25 7 7 24 -21 67 -32 56 -14 -5 9 -3 9 9 0 8 -7 18 -10 21 -6 4 3
7 0 7 -7 0 -11 3 -11 12 -2 7 7 17 12 22 12 6 0 5 -4 -2 -9 -10 -6 -9 -11 4
-22 16 -12 17 -12 10 1 -4 8 0 6 8 -4 9 -11 16 -14 16 -8 0 10 3 10 14 0 8 -7
11 -17 8 -23 -3 -5 2 -4 11 4 15 12 17 11 17 -2 0 -18 45 -67 62 -67 5 0 8 -7
5 -14 -4 -9 2 -17 14 -21 12 -4 19 -15 19 -31 0 -17 4 -23 12 -18 8 5 9 2 5
-9 -4 -10 0 -20 11 -26 9 -6 13 -11 7 -11 -5 0 -3 -5 5 -10 12 -8 12 -10 -5
-11 -18 0 -19 -1 -2 -8 10 -4 18 -11 17 -15 -1 -5 4 -13 12 -18 10 -7 9 -8 -4
-4 -22 7 -23 -1 -4 -19 7 -8 17 -11 21 -7 4 4 0 -5 -9 -19 -15 -25 -16 -28 -1
-43 16 -15 9 -22 -18 -17 -5 1 -6 -3 -2 -9 3 -6 10 -8 15 -5 5 3 11 1 15 -5 3
-5 2 -10 -3 -10 -5 0 -12 -9 -15 -19 -4 -15 -1 -18 12 -14 11 5 10 -1 -7 -19
-21 -24 -21 -38 2 -38 6 0 5 4 -3 9 -8 5 -9 11 -3 15 5 3 12 -1 16 -9 3 -8 0
-17 -6 -21 -7 -4 -6 -9 3 -15 11 -7 11 -9 1 -9 -10 0 -10 -5 -1 -22 11 -20 10
-22 -3 -10 -14 11 -15 9 -3 -25 12 -32 12 -40 -1 -49 -19 -15 -18 -25 4 -17
12 5 11 -1 -8 -21 -14 -15 -20 -27 -15 -26 23 5 33 -1 30 -17 -2 -10 -4 -22
-4 -26 -1 -5 -7 -5 -13 -1 -7 4 -10 4 -6 -1 4 -4 3 -14 -4 -22 -6 -8 -7 -13
-2 -12 22 4 32 -2 29 -18 -2 -10 -4 -22 -4 -26 -1 -5 -5 -5 -11 -2 -6 3 -7 -1
-4 -9 3 -9 10 -14 14 -11 5 3 7 -3 6 -12 -2 -9 -8 -19 -14 -21 -7 -2 -12 -8
-12 -13 0 -6 4 -8 9 -4 5 3 12 1 16 -5 3 -5 1 -10 -6 -10 -8 0 -8 -4 1 -15 15
-18 -1 -20 -19 -3 -11 10 -10 8 0 -9 8 -13 18 -23 23 -23 6 0 1 -6 -9 -14 -18
-13 -18 -13 1 -24 10 -6 13 -12 6 -12 -10 0 -10 -5 -1 -22 11 -20 10 -22 -3
-10 -14 11 -15 9 -3 -25 12 -32 12 -40 -1 -49 -19 -15 -18 -25 4 -17 12 5 11
-1 -8 -21 -14 -15 -20 -27 -15 -26 24 5 31 -2 30 -30 -1 -16 -5 -33 -10 -37
-4 -5 -5 -3 -1 4 3 6 1 15 -5 19 -8 4 -9 3 -5 -4 4 -7 1 -12 -6 -12 -7 -1 -2
-7 12 -15 22 -13 23 -14 5 -15 -18 -1 -19 -1 -2 -11 9 -5 17 -15 17 -20 0 -6
-4 -8 -9 -4 -5 3 -12 1 -15 -4 -3 -5 8 -8 25 -7 16 1 33 -2 36 -7 3 -6 2 -7
-4 -4 -5 3 -10 0 -10 -7 0 -11 4 -12 18 -3 10 6 16 14 14 17 -8 13 74 3 91
-10 11 -9 15 -10 10 -2 -5 8 0 12 14 12 12 0 19 -4 16 -8 -10 -16 33 -10 46 6
12 15 11 16 -5 3 -9 -8 -20 -11 -23 -8 -10 9 36 28 49 21 8 -6 8 -3 -1 8 -10
13 -11 22 -2 37 6 12 7 21 1 21 -5 0 -11 -6 -14 -12 -2 -7 -4 1 -3 17 1 17 5
35 8 41 4 6 4 14 1 18 -9 9 -11 46 -2 41 4 -3 10 2 13 11 9 24 7 31 -4 14 -7
-11 -10 2 -10 43 0 32 4 56 8 53 4 -2 8 4 8 14 0 13 -4 16 -12 9 -8 -7 -10 -2
-6 16 2 15 9 22 16 18 8 -5 8 -3 -1 8 -6 8 -11 35 -11 61 0 26 -3 56 -7 67 -3
10 -1 22 5 26 6 3 7 12 3 18 -11 18 -12 56 -2 63 6 4 6 11 -2 20 -9 11 -8 15
5 20 15 6 15 8 -1 20 -17 13 -17 13 0 14 9 0 17 5 17 11 0 5 -4 7 -10 4 -6 -4
-10 13 -10 45 0 28 4 49 8 46 4 -2 8 4 8 14 0 14 -4 16 -13 9 -9 -8 -10 -4 -4
18 4 15 4 40 0 55 -4 17 -3 30 3 34 6 4 8 2 4 -4 -3 -6 -1 -14 5 -18 8 -4 9
-3 5 4 -4 7 -2 12 4 12 7 0 6 5 -2 14 -7 8 -17 11 -23 8 -5 -2 -5 1 2 8 6 7 9
20 6 29 -4 13 -3 14 5 1 6 -8 8 -18 5 -24 -3 -5 -1 -6 4 -3 7 5 8 20 3 42 -5
22 -4 37 3 42 6 4 7 1 2 -8 -7 -12 -5 -12 6 -1 9 8 10 15 4 20 -15 10 -18 35
-4 26 8 -5 10 -2 7 7 -7 19 9 62 21 55 5 -3 7 4 3 16 -4 17 -2 20 11 15 14 -5
15 -2 7 19 -6 14 -7 23 -2 21 9 -5 42 30 35 37 -4 3 2 6 13 6 16 0 17 2 4 10
-13 8 -12 10 4 10 12 0 16 5 12 15 -4 13 -2 14 14 5 11 -6 20 -7 19 -3 -4 21
2 33 17 33 8 0 13 4 10 9 -4 5 4 7 16 4 19 -4 20 -3 8 6 -12 9 -10 11 13 11
19 0 26 4 21 12 -5 8 -2 9 9 5 10 -4 17 -1 17 6 0 8 4 6 10 -3 6 -9 10 -11 10
-3 0 7 7 10 17 6 11 -4 14 -3 9 5 -4 7 -2 10 6 7 40 -14 68 -13 68 2 0 14 3
13 22 -3 12 -10 18 -13 14 -6 -4 7 -1 12 9 12 9 0 14 4 11 8 -3 5 1 9 10 9 9
0 13 -7 9 -21 -3 -12 -2 -16 1 -9 3 7 13 9 22 6 15 -6 16 -5 2 12 -14 17 -14
17 7 5 12 -8 20 -17 17 -21 -5 -9 17 -6 34 4 11 7 16 2 14 -14 -2 -10 32 -5
40 6 5 6 8 5 8 -2 0 -7 7 -13 16 -13 11 0 14 -6 10 -17 -5 -15 -4 -15 9 1 14
19 21 11 16 -17 -1 -4 8 -3 19 3 16 9 18 8 14 -5 -5 -11 -2 -14 12 -8 12 4 15
3 10 -5 -4 -7 -2 -12 4 -12 6 0 8 -5 4 -12 -5 -8 -2 -9 12 -4 10 4 15 4 11 0
-4 -5 3 -14 15 -22 19 -11 20 -12 3 -8 -19 6 -20 6 -1 -9 10 -8 24 -11 30 -8
6 4 6 0 -1 -9 -15 -17 -8 -29 12 -22 14 6 15 -12 2 -32 -9 -15 2 -24 21 -16
15 5 16 4 2 -13 -9 -11 -10 -16 -2 -11 7 4 12 1 12 -9 0 -9 4 -14 8 -11 4 2 8
-4 8 -15 0 -10 -5 -19 -11 -19 -5 0 -3 -4 5 -10 9 -5 13 -22 12 -46 -3 -34 -1
-36 14 -23 15 12 14 9 -2 -16 -10 -16 -14 -26 -8 -22 8 4 13 -4 16 -24 3 -16
0 -33 -5 -36 -6 -4 -7 -1 -2 8 5 8 4 11 -1 6 -5 -5 -9 -12 -9 -15 0 -4 -4 -13
-8 -20 -10 -15 14 -12 26 3 5 6 5 0 2 -12 -4 -15 -2 -23 6 -23 7 0 9 -3 6 -6
-4 -4 -14 -1 -24 7 -9 8 -14 9 -10 2 4 -6 1 -14 -5 -16 -8 -3 -5 -6 6 -6 13
-1 16 -6 11 -18 -4 -10 -8 -22 -9 -28 -1 -5 -5 -16 -10 -23 -4 -7 -4 -12 1
-11 19 3 31 -2 37 -17 5 -13 4 -14 -7 -6 -14 12 -27 7 -27 -10 0 -5 5 -6 10
-3 6 3 10 2 10 -4 0 -5 -4 -13 -10 -16 -5 -3 -10 -11 -10 -17 0 -6 7 -5 17 3
15 13 15 12 6 -6 -12 -24 -6 -48 10 -38 7 3 8 2 4 -3 -5 -5 -13 -10 -18 -10
-5 -1 -12 -2 -16 -3 -4 0 2 -8 13 -17 16 -13 16 -15 2 -10 -10 3 -20 0 -24 -6
-4 -7 -3 -8 4 -4 8 4 10 -3 7 -24 -2 -16 0 -30 5 -30 4 0 11 -7 14 -16 6 -14
4 -15 -9 -4 -13 11 -16 11 -13 -1 2 -8 10 -20 18 -27 13 -11 11 -12 -10 -6
-22 5 -23 4 -9 -7 23 -19 32 -50 14 -42 -8 3 -12 10 -8 16 3 6 1 7 -5 3 -16
-10 -15 -12 11 -37 l22 -21 -25 7 c-22 6 -23 5 -9 -6 23 -19 32 -50 14 -42 -8
3 -12 10 -8 16 3 6 1 7 -5 3 -16 -10 -15 -12 11 -37 l22 -21 -25 7 c-22 6 -23
5 -9 -6 23 -19 32 -50 14 -42 -8 3 -12 10 -8 16 3 6 1 7 -5 3 -16 -10 -15 -12
11 -37 l22 -21 -25 7 c-22 6 -23 5 -9 -6 23 -19 32 -50 14 -42 -8 3 -12 10 -8
16 3 6 1 7 -6 3 -8 -6 -9 -12 -2 -20 7 -9 7 -16 -2 -25 -9 -10 -9 -12 3 -9 8
2 18 7 21 11 3 5 9 1 12 -8 5 -11 3 -14 -5 -9 -8 5 -9 2 -4 -11 6 -16 4 -16
-11 -4 -9 8 -14 9 -10 2 4 -6 1 -14 -5 -16 -7 -3 -4 -6 7 -6 17 -1 18 -3 5
-12 -12 -9 -11 -10 8 -6 12 3 20 1 16 -4 -3 -5 -13 -9 -22 -9 -13 0 -13 -2 4
-16 16 -13 16 -15 2 -10 -10 3 -18 1 -18 -4 0 -6 5 -10 11 -10 6 0 9 -6 6 -14
-3 -8 1 -20 9 -26 8 -8 14 -8 14 -2 0 5 7 12 14 15 11 4 13 1 9 -11 -6 -14 -4
-15 9 -4 8 7 24 9 33 5 13 -4 16 -3 11 5 -5 8 -2 10 8 6 9 -3 13 -10 10 -15
-3 -5 2 -6 10 -3 9 3 13 11 9 18 -4 6 1 5 10 -3 12 -9 17 -10 17 -2 0 7 5 9
10 6 6 -4 8 -10 6 -14 -3 -3 4 -7 14 -7 13 0 16 4 10 11 -13 16 24 13 43 -3
12 -10 13 -8 9 14 -3 16 -1 25 5 21 5 -3 9 3 8 14 -1 11 -8 25 -16 30 -8 5 -9
9 -3 9 14 0 14 113 0 122 -8 5 -7 8 1 8 8 0 11 11 9 29 -2 16 0 35 5 42 5 8 1
21 -9 33 -9 11 -12 17 -6 13 15 -8 15 106 0 115 -8 5 -7 8 1 8 8 0 11 11 9 29
-2 16 0 35 5 42 5 8 1 21 -9 33 -9 11 -12 17 -6 13 7 -4 10 14 11 54 0 37 -4
59 -11 59 -7 0 -8 3 -1 8 15 10 16 112 2 112 -9 0 -9 2 -1 8 14 9 14 104 -1
114 -7 5 -6 8 1 8 15 0 14 90 0 90 -6 0 -5 4 3 9 9 6 10 11 2 15 -8 5 -8 13 0
28 10 18 9 20 -5 15 -9 -4 -16 -2 -16 3 0 6 8 10 17 10 15 0 14 2 -4 15 -14
10 -19 22 -16 35 3 11 10 17 16 13 6 -3 7 -1 3 6 -4 6 -11 9 -16 6 -10 -6 -22
23 -14 36 3 5 1 9 -5 9 -5 0 -8 8 -6 18 1 9 -7 23 -19 30 -19 11 -19 12 9 7
l30 -6 -30 15 c-16 8 -24 15 -16 15 11 1 11 4 1 16 -7 8 -17 12 -23 8 -6 -3
-7 -1 -3 5 4 7 2 12 -3 12 -6 0 -11 7 -11 16 0 9 -5 12 -12 8 -10 -6 -10 -4 0
7 18 20 15 33 -5 18 -10 -7 -15 -10 -11 -5 4 5 0 15 -8 23 -8 8 -11 19 -8 25
5 7 2 8 -6 3 -10 -6 -12 -3 -7 11 7 18 7 18 -8 0 -15 -19 -15 -19 -15 3 0 16
-4 21 -15 17 -9 -3 -26 9 -46 34 -25 31 -35 37 -46 29 -10 -9 -13 -8 -13 5 0
10 -4 14 -10 11 -5 -3 -10 -1 -10 4 0 6 -5 11 -11 11 -5 0 -7 -5 -3 -12 4 -7
3 -8 -4 -4 -6 4 -8 14 -5 24 6 15 5 15 -10 3 -13 -10 -17 -10 -17 -1 0 9 -4 9
-17 -1 -15 -12 -16 -12 -10 5 6 15 5 16 -6 8 -9 -8 -17 -8 -27 0 -12 8 -12 9
3 4 9 -3 17 -1 17 4 0 9 -36 15 -67 11 -7 -1 -13 4 -13 11 0 10 -3 9 -9 -1 -8
-12 -12 -12 -24 -2 -11 8 -17 9 -22 1 -5 -8 -11 -8 -21 1 -11 9 -14 8 -14 -2
0 -11 -2 -11 -10 1 -8 12 -11 13 -19 1 -7 -11 -9 -11 -13 0 -4 12 -8 11 -23
-1 -10 -8 -16 -10 -12 -4 4 7 0 14 -8 17 -9 4 -12 1 -9 -8 5 -12 -12 -14 -36
-5 -14 6 -36 5 -45 -2 -6 -4 -23 -5 -38 -4 -23 3 -25 1 -15 -12 12 -14 10 -14
-12 -2 -24 13 -24 12 -10 -5 10 -12 10 -16 2 -11 -7 4 -19 2 -27 -4 -8 -7 -15
-9 -15 -5 0 4 -8 1 -17 -6 -9 -8 -14 -9 -10 -2 8 13 -18 12 -30 -2 -5 -4 -1
-4 7 0 13 8 13 6 2 -7 -7 -9 -22 -15 -33 -13 -11 2 -17 0 -14 -6 4 -5 -1 -10
-9 -10 -31 -3 -35 -4 -48 -18 -11 -12 -11 -13 1 -6 9 5 12 4 7 -3 -4 -7 -14
-12 -23 -12 -13 0 -13 -2 -2 -17 13 -15 12 -15 -8 -4 -20 10 -22 9 -16 -6 5
-12 2 -15 -9 -10 -10 3 -19 0 -22 -9 -3 -9 -10 -13 -14 -10 -5 3 -9 -1 -9 -9
0 -12 4 -12 21 2 18 15 18 14 -2 -8 -12 -14 -19 -29 -15 -34 5 -4 3 -5 -4 -2
-17 10 -48 -3 -32 -14 9 -5 10 -11 2 -21 -10 -12 -13 -19 -13 -33 0 -3 -10 0
-22 6 -21 11 -22 11 -9 -5 8 -9 10 -20 6 -24 -4 -4 -10 -1 -12 6 -3 6 -9 10
-14 6 -8 -4 -14 17 -10 39 0 4 -4 7 -10 7 -5 0 -7 5 -3 12 5 8 2 9 -10 5 -9
-4 -15 -3 -11 2 3 5 -2 16 -10 24 -8 9 -15 21 -15 27 0 6 -5 8 -12 4 -8 -5 -9
-2 -5 10 4 9 3 15 -2 12 -13 -8 -61 33 -61 52 0 12 -3 13 -8 5 -6 -9 -13 -5
-27 13 -10 14 -28 30 -39 35 -16 8 -15 6 4 -11 22 -19 22 -20 3 -11 -12 6 -25
16 -28 21 -4 6 -12 8 -18 4 -7 -3 -3 2 8 11 19 16 19 16 -7 10 -20 -5 -28 -3
-28 6 0 12 -2 12 -9 1 -7 -11 -9 -11 -14 2 -4 10 -13 13 -23 9 -13 -5 -15 -3
-9 8 7 11 6 12 -6 2 -12 -10 -22 -8 -48 8 -18 11 -30 15 -27 10 4 -5 -3 -9
-14 -8 -11 1 -20 6 -20 12 0 5 -5 3 -10 -5 -9 -13 -10 -13 -10 0 0 9 -3 11 -8
5 -9 -13 -35 -19 -28 -6 3 5 -1 12 -10 15 -10 4 -13 2 -8 -6z m-632 -36 c3 -5
-1 -9 -9 -9 -8 0 -12 4 -9 9 3 4 7 8 9 8 2 0 6 -4 9 -8z m576 -192 c0 -5 -2
-10 -4 -10 -3 0 -8 5 -11 10 -3 6 -1 10 4 10 6 0 11 -4 11 -10z m1052 -4 c7 4
8 2 4 -4 -4 -6 -13 -9 -21 -6 -8 4 -12 11 -8 17 5 8 8 7 11 -1 2 -7 9 -9 14
-6z m-1525 -18 c-3 -8 -6 -5 -6 6 -1 11 2 17 5 13 3 -3 4 -12 1 -19z m273 -6
c0 -5 -12 -14 -27 -21 l-28 -12 25 21 c29 22 30 23 30 12z m480 -87 c13 -14
21 -25 18 -25 -2 0 -15 11 -28 25 -13 14 -21 25 -18 25 2 0 15 -11 28 -25z
m1291 -714 c-8 -5 -10 -14 -6 -22 6 -11 5 -11 -5 -2 -14 12 -6 33 13 33 8 0 7
-3 -2 -9z m-2045 -88 c-2 -9 -9 -19 -17 -21 -11 -3 -11 -1 1 7 8 6 11 11 7 11
-5 0 -5 5 -2 10 9 15 14 12 11 -7z m0 -160 c-2 -9 -9 -19 -17 -21 -11 -3 -11
-1 1 7 8 6 11 11 7 11 -5 0 -5 5 -2 10 9 15 14 12 11 -7z m2054 -303 c0 -5 -5
-10 -11 -10 -5 0 -7 5 -4 10 3 6 8 10 11 10 2 0 4 -4 4 -10z"/>
<path d="M3996 3355 c-3 -8 -1 -15 4 -15 6 0 10 7 10 15 0 8 -2 15 -4 15 -2 0
-6 -7 -10 -15z"/>
<path d="M2835 3350 c-3 -6 -10 -8 -14 -6 -9 6 -9 -50 0 -59 4 -3 5 6 4 20 -2
14 0 23 5 20 9 -5 5 -48 -6 -66 -5 -8 -2 -11 8 -7 9 4 15 0 15 -8 0 -8 -5 -14
-11 -14 -6 0 -5 -4 3 -9 8 -5 12 -18 8 -30 -3 -12 -2 -19 1 -17 4 2 16 0 27
-5 18 -7 18 -8 -5 -9 -24 -1 -24 -2 -3 -10 21 -9 24 -24 10 -47 -4 -6 -2 -15
4 -19 8 -5 9 -3 4 6 -5 8 -4 11 2 7 6 -4 9 -18 7 -33 -2 -19 1 -24 12 -20 8 3
12 2 9 -3 -3 -5 -1 -12 5 -16 7 -4 7 -12 1 -23 -7 -12 -5 -23 7 -36 16 -18 16
-19 -1 -13 -15 6 -16 4 -7 -13 6 -11 13 -20 16 -20 3 0 2 5 -2 12 -4 7 -3 8 5
4 9 -6 9 -11 -1 -24 -10 -12 -10 -14 0 -8 8 5 12 0 12 -14 0 -14 4 -19 13 -14
9 5 9 4 0 -6 -9 -9 -9 -19 -2 -32 6 -10 9 -28 7 -40 -2 -12 3 -23 12 -25 11
-3 11 -2 3 4 -8 6 -9 14 -3 23 8 12 10 11 11 -5 1 -11 0 -28 -1 -39 -1 -13 2
-16 12 -10 11 6 11 5 0 -8 -10 -13 -10 -18 -1 -24 8 -5 9 -3 4 6 -5 8 -4 11 2
7 5 -3 8 -20 5 -38 -3 -20 -1 -30 6 -26 5 4 12 -2 15 -14 4 -14 2 -18 -7 -12
-6 4 -4 1 6 -9 10 -9 14 -18 7 -20 -5 -2 -7 -11 -4 -21 4 -9 12 -14 19 -10 7
4 7 2 -1 -7 -9 -10 -9 -19 2 -41 8 -15 20 -29 27 -32 10 -4 10 -6 1 -6 -7 -1
-13 -6 -13 -12 0 -5 4 -8 10 -4 5 3 8 -9 6 -29 -1 -19 0 -35 3 -34 27 2 33 -3
21 -17 -7 -9 -10 -18 -6 -22 3 -3 6 -1 6 5 0 7 4 12 8 12 4 0 8 -9 8 -19 0
-11 -3 -18 -6 -16 -4 2 -7 -2 -7 -10 0 -8 4 -12 9 -9 11 7 10 -3 -4 -29 -10
-20 -10 -21 6 -8 14 12 16 12 10 -4 -6 -14 -4 -16 6 -10 10 6 12 4 7 -8 -3 -9
-2 -19 3 -22 5 -3 6 -13 3 -22 -5 -12 -3 -14 7 -8 10 6 12 4 7 -8 -4 -10 -1
-17 6 -17 9 0 9 -2 0 -8 -18 -11 -9 -47 11 -45 10 0 15 -1 12 -4 -3 -3 -1 -15
5 -26 9 -15 8 -18 -3 -11 -10 6 -11 5 -1 -7 12 -15 13 -18 13 -55 0 -14 4 -23
9 -20 14 9 31 -40 18 -53 -7 -7 -7 -11 -1 -11 6 0 11 -12 12 -27 1 -45 8 -68
20 -68 6 0 14 -3 18 -7 4 -5 2 -8 -4 -8 -16 0 -11 -21 8 -38 13 -12 13 -13 0
-6 -13 7 -13 5 -2 -8 10 -13 10 -17 0 -22 -7 -3 -2 -4 12 -3 19 1 26 -3 28
-20 2 -14 10 -21 22 -20 10 1 16 5 14 9 -3 5 -10 5 -16 2 -6 -4 -8 -3 -5 3 3
5 20 8 38 5 23 -3 28 -7 18 -14 -11 -7 -9 -8 4 -4 10 3 21 6 23 6 3 0 2 6 -2
13 -4 6 3 3 15 -7 22 -20 22 -20 15 0 -7 18 -7 18 16 -1 13 -11 20 -14 16 -7
-5 8 0 12 14 12 12 0 18 -4 15 -10 -3 -5 -1 -10 4 -10 6 0 11 8 11 18 1 15 2
15 15 -2 13 -17 15 -17 15 -4 0 9 5 20 12 24 7 4 8 3 4 -4 -11 -18 10 -14 25
5 12 15 12 16 -1 8 -9 -5 -7 1 5 15 11 13 14 20 8 16 -7 -4 -13 -2 -13 3 0 6
4 11 9 11 4 0 6 11 3 25 -2 15 0 25 7 25 7 0 9 -4 6 -10 -3 -6 1 -7 9 -4 14 5
14 8 1 21 -20 19 -19 24 3 16 15 -6 16 -5 2 12 -12 15 -12 17 -1 10 11 -6 13
-2 9 19 -3 14 -2 26 2 26 4 0 8 6 7 13 -1 30 4 47 14 47 5 0 7 -6 3 -12 -4 -7
-3 -9 1 -5 12 10 15 38 4 31 -5 -3 -9 0 -9 5 0 6 4 11 9 11 6 0 10 8 10 18 1
53 7 67 26 64 12 -2 16 0 9 5 -17 13 -25 43 -9 37 9 -4 13 3 11 25 -2 22 2 31
13 32 11 0 12 2 4 6 -16 6 -17 33 -2 33 5 0 7 -5 3 -12 -4 -7 -3 -8 5 -4 6 4
9 11 6 16 -3 5 -1 11 5 15 16 10 12 25 -7 26 -17 0 -17 1 0 8 10 4 18 10 18
14 -4 33 0 47 12 41 8 -6 8 -3 -1 9 -15 17 -9 37 11 37 7 0 6 -4 -3 -10 -8 -5
-11 -12 -7 -16 10 -10 17 -1 23 30 3 17 0 26 -8 26 -10 0 -9 3 1 9 8 5 11 16
8 26 -4 9 -3 13 2 10 5 -3 12 -1 16 5 3 5 1 10 -5 10 -6 0 -9 4 -5 10 3 5 11
8 18 6 7 -1 9 -1 5 1 -5 3 -8 11 -8 19 0 9 4 13 8 10 5 -3 9 1 9 9 0 8 -5 15
-11 15 -6 0 -3 5 7 11 10 6 14 15 10 22 -12 19 -12 37 -1 37 6 0 7 -8 3 -17
-5 -14 -4 -15 6 -6 9 10 10 15 0 27 -9 11 -9 16 0 22 8 5 9 3 4 -5 -6 -10 -3
-11 14 -2 11 7 21 14 21 17 0 3 -4 3 -9 0 -5 -3 -11 3 -14 14 -3 11 -1 17 4
14 6 -3 8 6 5 20 -3 15 -1 24 4 21 4 -3 8 5 8 18 0 44 21 99 34 91 7 -5 8 -2
2 7 -13 22 -14 40 -1 38 7 -1 19 -1 27 0 12 1 12 3 -2 12 -9 5 -15 16 -12 24
4 8 10 13 14 10 5 -3 14 3 20 12 11 17 11 17 6 1 -4 -12 0 -18 11 -18 13 0 14
-2 2 -17 -10 -12 -11 -17 -2 -20 6 -2 9 -16 7 -33 -4 -21 2 -35 23 -55 15 -15
22 -24 16 -21 -7 4 -13 2 -13 -3 0 -6 6 -11 13 -11 8 0 7 -4 -3 -10 -13 -9
-13 -10 0 -10 13 0 13 -1 0 -10 -12 -8 -12 -10 -1 -10 9 0 11 -7 8 -21 -4 -14
-1 -19 7 -16 7 3 13 -5 14 -21 1 -14 8 -29 15 -34 9 -6 9 -8 0 -8 -7 0 -13 -5
-13 -11 0 -5 5 -7 10 -4 14 9 12 -8 -2 -24 -8 -8 -8 -11 -2 -8 7 4 17 0 24 -8
11 -13 10 -14 -6 -9 -15 5 -14 2 5 -14 17 -13 20 -21 12 -26 -9 -6 -8 -13 3
-31 10 -15 11 -26 4 -33 -6 -6 -6 -12 3 -17 8 -6 10 -4 5 6 -4 8 0 5 8 -5 13
-16 13 -22 3 -35 -8 -9 -8 -12 -1 -8 10 6 24 -11 28 -33 1 -3 5 -11 9 -17 6
-9 3 -11 -10 -6 -16 6 -16 5 -4 -10 7 -9 10 -24 7 -33 -6 -15 -4 -15 11 -3 11
9 14 10 9 2 -12 -21 -16 -54 -5 -48 5 4 6 11 3 17 -4 7 -2 8 4 4 6 -4 9 -13 5
-21 -3 -8 -1 -15 5 -15 12 0 10 -33 -3 -42 -6 -4 -2 -8 8 -8 9 0 17 -5 17 -11
0 -5 -5 -7 -12 -3 -7 5 -8 3 -2 -7 5 -8 9 -17 10 -21 1 -5 2 -11 3 -15 1 -5 6
-1 11 7 5 8 10 11 11 5 0 -5 2 -20 5 -33 2 -13 0 -21 -4 -18 -5 3 -9 -1 -9 -9
0 -8 5 -11 10 -8 6 4 8 0 4 -11 -4 -10 2 -25 15 -38 16 -16 17 -20 5 -15 -25
10 -21 -8 6 -22 18 -9 18 -11 2 -6 -19 5 -19 4 -2 -9 12 -9 15 -16 7 -21 -8
-5 -8 -11 1 -21 6 -7 8 -21 5 -30 -5 -14 -4 -15 8 -5 11 9 16 9 22 0 4 -7 3
-9 -3 -6 -11 7 -27 -33 -18 -42 3 -2 5 1 5 7 0 6 7 9 16 5 13 -5 13 -7 2 -14
-11 -7 -11 -9 1 -9 11 0 11 -3 0 -17 -9 -11 -10 -14 -2 -9 9 5 12 -1 9 -24 -3
-26 -1 -29 12 -18 13 11 14 10 4 -9 -10 -19 -9 -24 5 -31 10 -5 24 -7 32 -4 8
3 11 0 7 -7 -5 -7 -1 -9 8 -5 9 3 14 9 12 13 -3 4 4 7 14 7 10 0 17 -4 14 -7
-2 -4 0 -10 6 -14 5 -3 10 2 10 12 1 17 1 17 14 0 13 -16 14 -16 20 -1 6 15 8
15 28 -2 12 -11 18 -13 14 -6 -5 8 0 12 14 12 12 0 18 -4 15 -10 -3 -5 -1 -10
4 -10 6 0 11 6 11 14 0 8 5 18 12 22 6 4 8 3 5 -2 -3 -6 -2 -16 4 -24 7 -13 9
-12 9 2 0 12 5 15 17 11 12 -5 15 -2 10 10 -4 12 -2 14 10 10 10 -4 14 -2 9 5
-3 6 -2 13 4 17 6 4 7 12 3 18 -12 19 -12 37 -1 34 6 -1 13 4 16 12 3 9 0 11
-9 7 -8 -4 -4 1 9 11 18 15 20 21 10 32 -11 11 -10 12 1 6 11 -6 13 -4 8 8 -4
10 -2 17 5 17 7 0 6 5 -2 15 -12 15 -4 21 23 16 5 -1 6 3 2 9 -3 6 -12 7 -18
4 -7 -4 -2 3 11 15 12 12 20 26 17 31 -3 5 -1 12 5 15 8 5 8 11 0 20 -15 18
-3 38 19 31 14 -5 13 -4 -1 8 -23 17 -23 27 -1 19 12 -5 14 -3 8 7 -6 10 -4
12 9 7 10 -4 15 -3 11 3 -3 6 -14 10 -23 10 -14 0 -13 2 3 13 10 8 15 19 11
25 -3 6 2 13 11 15 16 4 16 5 -1 6 -20 1 -20 1 0 16 10 8 15 14 9 13 -5 -2
-10 2 -10 7 0 6 5 9 13 7 11 -3 11 1 1 20 -11 20 -10 21 3 11 13 -11 15 -8 13
17 -1 17 3 30 9 30 6 0 2 8 -9 17 -20 15 -20 15 1 11 13 -3 21 0 21 8 0 7 -5
11 -11 8 -6 -3 -3 1 7 9 19 16 24 32 5 21 -7 -5 -8 -3 -4 5 5 7 15 10 23 7 9
-4 11 -2 7 6 -4 6 -8 24 -8 40 -1 20 3 27 13 23 11 -4 11 -2 2 9 -9 11 -9 16
0 22 7 4 9 3 6 -3 -3 -5 -1 -10 6 -10 7 0 13 8 13 18 0 10 -4 15 -8 13 -4 -3
-8 0 -8 5 0 6 4 11 10 11 5 0 8 13 6 30 -2 16 0 27 5 25 4 -3 10 -1 14 5 3 5
1 10 -4 10 -6 0 -11 4 -11 9 0 5 7 8 16 7 9 0 18 7 19 17 2 9 -2 17 -8 17 -7
0 -5 5 3 10 13 8 13 10 1 10 -11 0 -10 4 5 16 10 8 14 13 8 10 -6 -3 -11 1
-11 9 0 8 3 14 6 13 19 -2 24 4 11 13 -12 9 -12 10 5 6 17 -3 20 1 19 27 0 17
3 39 8 48 5 9 4 19 -2 23 -5 3 -7 12 -4 20 4 8 9 13 13 11 3 -2 13 3 21 12 13
14 12 15 -3 9 -9 -3 -19 -1 -23 5 -4 7 -3 8 4 4 7 -4 12 -2 12 4 0 6 4 9 8 6
4 -2 9 4 9 15 1 11 -2 17 -7 14 -5 -3 -3 6 5 21 7 14 12 35 10 45 -2 11 1 16
9 13 8 -3 16 2 20 12 5 12 2 15 -11 10 -17 -6 -17 -5 -1 7 10 8 15 17 11 20
-3 4 -2 7 4 7 5 0 8 13 5 29 -2 16 1 32 7 35 7 4 9 1 5 -7 -3 -8 -1 -18 5 -22
6 -3 9 0 5 8 -3 8 -1 18 4 21 6 3 8 16 4 28 -3 13 -1 19 6 15 12 -8 10 19 -3
30 -4 4 -5 2 0 -6 6 -10 4 -12 -5 -6 -10 6 -7 13 11 27 13 11 18 16 10 12 -9
-4 -12 -2 -9 7 3 8 11 13 18 11 10 -2 10 1 -1 14 -9 12 -10 15 -1 10 8 -5 11
-1 9 11 -2 18 -17 27 -27 16 -3 -4 1 -3 9 2 10 5 12 4 7 -4 -4 -6 -13 -8 -19
-4 -21 13 -49 14 -41 1 4 -7 3 -8 -4 -4 -7 4 -12 15 -13 24 0 14 -2 13 -9 -3
-7 -17 -9 -17 -9 -2 -1 9 -6 17 -12 17 -5 0 -7 -6 -3 -12 4 -7 -3 -4 -16 7
l-23 20 12 -22 c10 -20 9 -21 -11 -18 -12 3 -25 10 -30 17 -7 12 -12 4 -9 -15
1 -4 -8 -3 -19 3 -11 6 -17 16 -14 22 4 7 3 8 -4 4 -6 -4 -9 -13 -5 -21 3 -11
1 -13 -10 -9 -8 3 -18 0 -23 -7 -4 -8 -3 -10 4 -5 7 4 12 2 12 -3 0 -6 -5 -11
-12 -11 -6 0 -8 -3 -5 -7 4 -3 1 -13 -6 -21 -6 -9 -7 -13 -1 -9 6 3 11 0 11
-8 0 -8 -4 -12 -9 -9 -5 3 -6 -7 -4 -23 5 -25 4 -26 -8 -10 -12 16 -13 15 -13
-9 0 -14 -7 -31 -14 -36 -11 -8 -10 -9 4 -4 15 5 16 3 7 -14 -6 -11 -8 -20 -4
-20 3 0 0 -8 -7 -17 -8 -9 -9 -14 -3 -10 12 7 12 -28 0 -40 -4 -5 -6 -2 -4 6
2 7 -2 15 -8 18 -7 2 -12 -2 -11 -9 1 -34 -4 -49 -15 -42 -7 4 -8 3 -4 -5 4
-6 11 -9 16 -6 12 8 -1 -39 -14 -47 -8 -6 -8 -8 0 -8 6 0 11 -7 11 -15 0 -11
-4 -12 -14 -3 -10 8 -12 7 -8 -5 4 -8 2 -18 -4 -21 -6 -4 -7 -14 -4 -23 4 -9
2 -14 -3 -10 -5 3 -10 -3 -10 -13 0 -10 4 -16 8 -14 14 9 9 -4 -8 -20 -12 -12
-12 -16 -2 -16 10 0 9 -3 -2 -10 -8 -5 -10 -10 -3 -10 6 0 10 -6 8 -12 -9 -39
-18 -58 -27 -58 -6 0 -3 11 6 24 11 18 13 27 4 32 -6 4 -8 3 -5 -3 4 -5 -2
-19 -13 -31 -16 -17 -17 -21 -4 -26 14 -5 14 -8 -1 -22 -12 -12 -13 -19 -4
-30 11 -13 6 -18 -16 -15 -5 1 -2 -5 8 -13 18 -14 18 -14 -1 -20 -14 -5 -19
-14 -17 -31 1 -14 -3 -25 -9 -25 -7 0 -6 -3 1 -8 10 -7 10 -12 -1 -28 -11 -15
-12 -22 -3 -33 10 -12 9 -13 -2 -6 -11 6 -13 4 -8 -9 5 -13 3 -17 -7 -13 -10
4 -13 1 -9 -8 3 -8 10 -12 17 -8 6 4 5 -1 -3 -10 -7 -9 -16 -15 -20 -13 -4 3
-7 -5 -8 -17 0 -12 1 -16 4 -9 3 6 9 12 15 12 6 0 3 -9 -7 -20 -10 -11 -15
-20 -10 -20 4 0 0 -11 -9 -24 -10 -17 -12 -27 -5 -31 6 -5 4 -12 -7 -19 -9 -7
-14 -18 -10 -24 4 -7 1 -12 -6 -12 -9 0 -9 -3 2 -10 9 -6 11 -10 3 -10 -7 0
-10 -7 -7 -15 4 -8 1 -15 -6 -15 -10 0 -10 -3 -1 -14 9 -11 9 -16 0 -22 -8 -5
-10 -3 -4 7 5 8 4 10 0 6 -12 -10 -16 -39 -5 -32 5 3 12 0 16 -6 4 -8 3 -9 -4
-5 -7 4 -12 1 -12 -8 0 -9 -5 -16 -11 -16 -5 0 -7 5 -3 12 4 7 3 8 -5 4 -9 -6
-9 -11 0 -22 9 -11 9 -14 -1 -14 -9 0 -9 -4 -2 -13 7 -8 7 -18 2 -27 -5 -8 -7
-17 -5 -20 1 -3 -3 -11 -11 -18 -9 -8 -14 -9 -14 -2 0 6 -4 9 -9 6 -5 -4 -7 4
-3 16 3 12 1 19 -4 15 -6 -3 -11 3 -11 14 -1 11 2 17 6 15 4 -3 8 1 8 9 0 8
-3 13 -6 12 -3 -1 -7 3 -9 8 -2 6 -11 18 -19 28 -9 9 -13 17 -9 17 3 0 -1 14
-10 31 -9 19 -11 28 -4 24 8 -5 11 -3 8 6 -3 8 -11 14 -19 13 -10 -1 -14 11
-12 48 1 31 -2 48 -10 48 -8 0 -8 3 -2 8 6 4 11 14 13 22 3 11 -1 11 -16 -3
-15 -14 -19 -14 -19 -2 0 8 4 12 9 9 4 -3 8 2 8 11 0 10 -5 13 -12 9 -8 -5 -7
0 2 11 9 11 10 16 3 11 -9 -5 -13 0 -13 14 0 12 -5 31 -11 42 -8 15 -8 19 0
14 6 -4 11 -3 11 3 0 5 -6 12 -12 14 -10 4 -9 8 2 16 9 7 11 11 3 11 -7 0 -16
-8 -22 -17 -8 -15 -9 -12 -7 12 2 17 -2 41 -9 55 -8 16 -9 33 -4 47 6 17 5 21
-5 17 -8 -3 -17 0 -22 7 -4 8 -3 10 4 5 16 -10 15 7 0 23 -10 11 -10 13 0 7 6
-4 12 -2 12 3 0 6 -7 11 -15 11 -8 0 -15 5 -15 11 0 5 4 7 10 4 6 -3 7 1 4 9
-3 9 -11 16 -16 16 -6 0 -5 6 2 15 7 8 8 15 3 15 -5 0 -16 13 -26 29 -13 22
-14 32 -6 37 7 4 9 3 6 -3 -4 -6 2 -22 14 -34 l20 -24 -14 25 c-8 14 -13 33
-12 42 2 10 -2 16 -8 15 -7 -1 -11 6 -9 17 2 12 -1 16 -10 11 -10 -6 -11 -5 0
6 15 16 16 29 1 29 -5 0 -7 -4 -4 -10 3 -6 -1 -7 -9 -4 -13 5 -12 9 7 24 l22
19 -24 -6 c-22 -6 -23 -4 -19 25 2 18 0 32 -5 32 -6 0 -7 3 -4 6 3 4 2 16 -4
27 -8 14 -8 18 0 13 16 -10 14 3 -3 20 -8 7 -16 10 -19 6 -2 -4 -3 -2 -1 4 1
6 -3 17 -9 24 -9 10 -9 11 1 6 15 -9 16 6 0 22 -9 9 -9 12 0 12 7 0 12 4 12
10 0 5 -3 9 -7 9 -20 -3 -26 2 -13 11 10 6 11 10 3 10 -7 0 -13 7 -13 16 0 9
5 12 13 8 7 -5 7 -1 -3 12 -22 29 -24 30 -17 12 3 -10 1 -20 -5 -24 -6 -4 -9
-3 -6 2 3 5 2 18 -2 29 -4 11 -4 30 1 43 7 17 5 22 -7 22 -13 0 -14 3 -5 14
10 12 8 13 -8 9 -12 -3 -18 -9 -15 -14 9 -16 -3 -10 -17 8 -8 9 -9 14 -4 11 6
-4 17 -3 24 2 9 5 2 7 -18 6 -18 0 -30 -5 -27 -12 2 -6 -2 -11 -10 -11 -7 0
-11 3 -9 7 2 4 -16 5 -40 4 -25 -1 -45 1 -45 6 0 4 -8 7 -17 6 -10 -2 -21 2
-25 8 -6 8 -8 7 -8 -1 0 -7 -7 -10 -17 -7 -15 5 -16 4 -3 -5 13 -9 13 -11 -2
-11 -9 0 -19 -6 -22 -12 -3 -7 -3 -2 0 11 6 21 4 22 -9 10 -11 -10 -12 -19 -5
-32 8 -15 5 -20 -11 -24 -20 -5 -20 -6 -4 -19 16 -11 15 -12 -10 -10 -25 3
-26 2 -14 -13 9 -10 11 -25 6 -41 -4 -14 -8 -20 -8 -15 -1 6 -7 1 -13 -10 -7
-11 -11 -22 -11 -25 1 -3 -3 -11 -9 -18 -8 -9 -7 -11 4 -7 9 4 15 0 15 -9 0
-8 -6 -12 -13 -9 -6 2 -15 -1 -20 -8 -4 -7 -3 -10 4 -5 7 4 10 -1 9 -14 -1
-11 -6 -20 -12 -20 -6 0 -7 -3 0 -8 6 -4 11 -13 13 -21 2 -11 0 -12 -10 -4
-10 9 -13 3 -12 -27 0 -22 -3 -37 -8 -34 -5 4 -7 13 -4 21 4 8 1 11 -5 8 -6
-4 -8 -13 -5 -20 2 -7 -1 -18 -7 -25 -9 -10 -9 -11 1 -6 17 10 15 -5 -3 -32
-15 -20 -15 -21 2 -16 14 5 15 4 4 -4 -8 -6 -10 -15 -6 -23 5 -8 -2 -5 -16 6
-13 11 -19 13 -12 6 6 -7 9 -20 6 -29 -5 -11 -2 -13 8 -8 8 4 5 0 -6 -9 -11
-9 -19 -23 -17 -31 2 -9 -3 -23 -10 -32 -8 -11 -5 -10 11 3 l24 20 -14 -22
c-8 -13 -17 -23 -21 -23 -5 0 -8 -4 -8 -10 0 -5 8 -7 18 -4 16 5 16 5 -1 -6
-9 -6 -15 -15 -12 -21 4 -5 4 -9 0 -9 -3 0 -10 10 -15 23 -8 19 -8 18 -7 -10
1 -17 5 -29 10 -26 4 2 7 0 7 -5 0 -6 -8 -13 -17 -16 -15 -6 -15 -8 -3 -16 8
-6 10 -10 5 -10 -6 0 -16 -10 -24 -22 l-14 -23 23 20 23 20 -16 -26 c-10 -14
-14 -30 -10 -34 5 -5 1 -4 -7 2 -13 10 -15 6 -13 -27 1 -24 -3 -40 -11 -43 -9
-3 -12 -15 -9 -31 3 -16 1 -26 -6 -26 -7 0 -9 5 -5 12 5 7 3 8 -5 4 -7 -5 -10
-11 -7 -14 3 -3 1 -11 -5 -18 -7 -8 -7 -14 1 -19 8 -5 7 -11 -2 -23 -7 -9 -8
-13 -2 -9 6 3 11 0 11 -8 0 -8 -4 -12 -9 -9 -5 3 -7 -6 -4 -20 3 -16 -2 -30
-12 -38 -15 -12 -16 -11 -3 5 7 9 9 17 3 17 -15 0 -22 -26 -9 -39 8 -8 6 -11
-9 -11 -15 0 -16 -2 -5 -9 12 -8 12 -12 2 -24 -9 -12 -9 -16 1 -21 7 -3 3 -4
-10 -2 -17 3 -21 1 -14 -7 14 -18 11 -49 -5 -43 -18 7 -12 -17 7 -26 12 -5 12
-7 -2 -7 -12 -1 -15 -6 -11 -18 5 -12 3 -14 -8 -8 -11 7 -12 6 -2 -7 7 -8 9
-18 5 -22 -4 -4 -8 -12 -8 -17 -1 -5 -2 -11 -3 -14 0 -3 -11 1 -24 10 -13 8
-27 12 -32 8 -4 -5 -5 -2 -1 5 4 7 2 12 -5 12 -7 0 -4 6 7 14 17 13 17 15 3
21 -11 4 -14 14 -11 32 4 20 2 24 -9 18 -11 -7 -11 -5 1 10 9 11 10 16 3 11
-8 -4 -13 -1 -13 9 0 10 5 13 13 9 8 -5 8 -2 -2 9 -7 9 -10 17 -6 17 3 0 -3
12 -14 26 -11 15 -18 31 -14 37 3 5 -3 17 -13 25 -15 12 -16 14 -2 9 12 -4 16
-1 15 13 -1 15 -4 17 -16 7 -12 -10 -13 -9 -2 12 11 19 11 22 0 16 -9 -6 -11
-3 -6 9 4 10 3 15 -3 11 -6 -3 -11 6 -11 22 -2 47 -4 53 -15 61 -17 11 -13 41
5 35 12 -3 12 -2 -2 7 -9 6 -22 8 -27 5 -6 -3 -7 1 -4 9 3 9 11 13 18 10 6 -3
0 4 -13 15 -18 16 -20 21 -7 21 9 0 16 5 16 11 0 5 -4 8 -9 5 -5 -3 -12 2 -15
11 -4 9 -2 20 5 23 8 6 8 9 0 14 -6 4 -11 4 -11 -1 0 -4 -6 1 -12 12 -6 11
-11 37 -11 57 0 21 -4 38 -9 38 -5 0 -6 5 -3 10 4 6 12 7 18 3 8 -5 8 -2 0 9
-7 8 -9 19 -5 23 4 5 1 5 -6 1 -7 -4 -10 -11 -8 -15 3 -4 -1 -8 -8 -8 -7 0
-13 6 -13 13 0 7 4 11 9 8 4 -3 8 2 8 11 0 9 -4 13 -10 10 -5 -3 -10 -2 -10 4
0 5 5 13 10 16 6 3 10 11 10 17 0 7 -5 6 -15 -2 -12 -10 -14 -8 -10 9 2 11 -1
23 -6 27 -6 4 -6 11 2 20 9 11 9 14 -1 14 -8 0 -10 8 -7 21 4 16 3 18 -8 9
-10 -8 -15 -8 -21 1 -4 7 -3 9 3 6 6 -4 14 0 17 9 4 11 2 15 -7 11 -7 -3 -13
3 -13 13 0 10 5 16 10 13 5 -4 6 -1 0 8 -5 8 -7 22 -6 32 2 9 -2 17 -7 17 -6
0 -11 7 -11 16 0 9 5 12 13 8 7 -5 7 -1 -3 12 -22 29 -24 30 -17 12 3 -10 2
-20 -2 -23 -5 -3 -8 17 -8 44 1 27 -1 47 -5 45 -4 -2 -10 1 -14 7 -3 6 0 15 7
20 12 7 11 9 -1 10 -8 1 -17 1 -20 1 -3 0 -5 10 -5 23 0 13 4 20 10 17 6 -3 4
2 -4 11 -7 9 -11 26 -8 37 3 11 1 18 -3 15 -5 -3 -14 1 -22 8 -7 7 -22 16 -33
20 -19 7 -19 6 -1 -7 17 -14 16 -15 -13 -14 -19 1 -28 5 -24 12 3 6 3 8 -2 4
-4 -4 -14 -3 -20 2 -9 7 -17 5 -26 -7 -13 -16 -12 -17 2 -5 14 10 18 10 22 -1
4 -11 -2 -13 -26 -11 -17 2 -33 8 -36 12 -3 4 -15 7 -26 7 -11 0 -25 3 -32 8
-6 4 -14 3 -18 -3z m25 -33 c0 -4 -6 -2 -14 5 -8 7 -12 17 -9 22 5 8 23 -12
23 -27z m35 13 c3 -6 -1 -7 -9 -4 -18 7 -21 14 -7 14 6 0 13 -4 16 -10z m1019
-6 c3 -8 2 -12 -4 -9 -6 3 -10 10 -10 16 0 14 7 11 14 -7z m-117 -161 c-4 -3
-1 -13 6 -22 11 -14 10 -14 -5 -2 -16 12 -16 31 -1 31 4 0 3 -3 0 -7z m960
-248 c0 -8 -4 -12 -9 -9 -5 3 -6 10 -3 15 9 13 12 11 12 -6z m-733 -61 c3 -8
2 -12 -4 -9 -6 3 -10 10 -10 16 0 14 7 11 14 -7z m930 -69 c-4 -8 -11 -15 -16
-15 -6 0 -5 6 2 15 7 8 14 15 16 15 2 0 1 -7 -2 -15z m-254 -85 c0 -5 -5 -10
-11 -10 -5 0 -7 5 -4 10 3 6 8 10 11 10 2 0 4 -4 4 -10z m215 -50 c3 -6 -1 -7
-9 -4 -18 7 -21 14 -7 14 6 0 13 -4 16 -10z m-234 -33 c-6 -8 -7 -18 -3 -22 4
-5 2 -5 -5 -1 -14 8 -6 36 9 36 7 0 6 -5 -1 -13z m-550 -94 c13 -16 12 -17 -3
-4 -17 13 -22 21 -14 21 2 0 10 -8 17 -17z m-745 -288 c1 -8 -3 -18 -8 -22 -6
-3 -8 -1 -4 5 3 6 2 13 -4 17 -6 4 -8 11 -4 16 7 12 17 4 20 -16z m-201 -64
c3 -5 2 -12 -3 -15 -5 -3 -9 1 -9 9 0 17 3 19 12 6z m1280 -51 c3 -5 1 -10 -4
-10 -6 0 -11 5 -11 10 0 6 2 10 4 10 3 0 8 -4 11 -10z m-1015 -70 c0 -5 -4
-10 -10 -10 -5 0 -10 5 -10 10 0 6 5 10 10 10 6 0 10 -4 10 -10z m915 -290 c3
-6 -1 -7 -9 -4 -18 7 -21 14 -7 14 6 0 13 -4 16 -10z"/>
<path d="M5071 3347 c-8 -10 -7 -14 2 -14 8 0 14 6 14 14 0 7 -1 13 -2 13 -2
0 -8 -6 -14 -13z"/>
<path d="M1686 3333 c-6 -14 -5 -15 5 -6 7 7 10 15 7 18 -3 3 -9 -2 -12 -12z"/>
<path d="M3816 3302 c-3 -5 1 -9 9 -9 8 0 12 4 9 9 -3 4 -7 8 -9 8 -2 0 -6 -4
-9 -8z"/>
<path d="M275 3241 c-3 -5 -2 -12 3 -15 5 -3 9 1 9 9 0 17 -3 19 -12 6z"/>
<path d="M2320 3246 c0 -2 7 -9 15 -16 9 -7 15 -8 15 -2 0 5 -7 12 -15 16 -8
3 -15 4 -15 2z"/>
<path d="M3110 3240 c0 -5 5 -10 11 -10 5 0 7 5 4 10 -3 6 -8 10 -11 10 -2 0
-4 -4 -4 -10z"/>
<path d="M1215 3221 c-3 -5 -2 -12 3 -15 5 -3 9 1 9 9 0 17 -3 19 -12 6z"/>
<path d="M696 3125 c4 -8 8 -15 10 -15 2 0 4 7 4 15 0 8 -4 15 -10 15 -5 0 -7
-7 -4 -15z"/>
<path d="M445 3049 c-11 -16 -1 -19 13 -3 7 8 8 14 3 14 -5 0 -13 -5 -16 -11z"/>
<path d="M3970 2940 c0 -5 5 -10 11 -10 5 0 7 5 4 10 -3 6 -8 10 -11 10 -2 0
-4 -4 -4 -10z"/>
<path d="M2546 2878 c3 -5 10 -6 15 -3 13 9 11 12 -6 12 -8 0 -12 -4 -9 -9z"/>
<path d="M1133 2755 c0 -8 4 -12 9 -9 5 3 6 10 3 15 -9 13 -12 11 -12 -6z"/>
<path d="M4046 2683 c-6 -14 -5 -15 5 -6 7 7 10 15 7 18 -3 3 -9 -2 -12 -12z"/>
<path d="M2282 2674 c-7 -8 -8 -14 -3 -14 10 0 25 19 20 25 -2 1 -10 -3 -17
-11z"/>
<path d="M3255 2680 c3 -5 8 -10 11 -10 2 0 4 5 4 10 0 6 -5 10 -11 10 -5 0
-7 -4 -4 -10z"/>
<path d="M273 2650 c1 -11 5 -20 9 -20 3 0 6 9 5 20 -1 11 -5 20 -9 20 -3 0
-6 -9 -5 -20z"/>
<path d="M1140 2460 c6 -11 13 -20 16 -20 2 0 0 9 -6 20 -6 11 -13 20 -16 20
-2 0 0 -9 6 -20z"/>
<path d="M1410 2341 c0 -6 4 -12 8 -15 5 -3 9 1 9 9 0 8 -4 15 -9 15 -4 0 -8
-4 -8 -9z"/>
<path d="M4420 2281 c0 -5 7 -12 16 -15 14 -5 15 -4 4 9 -14 17 -20 19 -20 6z"/>
<path d="M1410 2263 c0 -5 5 -15 10 -23 7 -12 9 -10 7 8 -1 19 -17 33 -17 15z"/>
<path d="M279 2148 c-5 -18 -6 -38 -1 -34 7 8 12 36 6 36 -2 0 -4 -1 -5 -2z"/>
<path d="M4220 2140 c-9 -6 -10 -10 -3 -10 6 0 15 5 18 10 8 12 4 12 -15 0z"/>
<path d="M3420 2097 c0 -3 12 -13 28 -22 15 -10 24 -14 20 -10 -4 5 -2 15 4
24 10 13 10 14 -2 4 -9 -8 -19 -9 -32 -2 -10 5 -18 8 -18 6z"/>
<path d="M3210 2006 c0 -2 8 -10 18 -17 15 -13 16 -12 3 4 -13 16 -21 21 -21
13z"/>
<path d="M1140 1980 c6 -11 13 -20 16 -20 2 0 0 9 -6 20 -6 11 -13 20 -16 20
-2 0 0 -9 6 -20z"/>
<path d="M279 1988 c-5 -18 -6 -38 -1 -34 7 8 12 36 6 36 -2 0 -4 -1 -5 -2z"/>
<path d="M1410 1861 c0 -6 4 -12 8 -15 5 -3 9 1 9 9 0 8 -4 15 -9 15 -4 0 -8
-4 -8 -9z"/>
<path d="M1250 1742 c0 -5 7 -9 15 -9 8 0 12 4 9 9 -3 4 -9 8 -15 8 -5 0 -9
-4 -9 -8z"/>
</g>
</svg>
